#!OML:ASF H:\MichaelJackson\Top Level 1\Subject 1\Session 1\male.ASF
:FULLY-SPECIFIED
:DEGREES
215
root -12.5656 17.0534 -34.4288 11.5736 3.43738 -0.392112
lowerback -14.0237 2.8039 7.32044
upperback 2.57695 2.66555 -2.15931
thorax 11.221 1.83765 -5.89962
lowerneck -5.67532 15.6328 1.90556
upperneck -1.69656 20.7637 -4.06655
head 1.01826 10.3395 -0.915651
rclavicle -1.41634e-015 1.19271e-015
rhumerus -33.0884 12.3585 -99.6772
rradius 36.4308
rwrist 14.3366
rhand -12.3335 -20.4953
rfingers 7.12502
rthumb 13.7356 -50.022
lclavicle -1.41634e-015 1.19271e-015
lhumerus -33.218 -15.7463 92.2655
lradius 45.5517
lwrist 5.93209
lhand 15.3646 20.8968
lfingers 7.12502
lthumb 40.1948 46.0638
rfemur -20.3833 7.86685 20.8193
rtibia 32.7912
rfoot -17.792 -32.5842
rtoes -14.3361
lfemur -26.3808 5.17025 -20.4216
ltibia 35.1656
lfoot -27.0128 -11.7846
ltoes 57.8945
216
root -12.5644 17.0533 -34.4277 11.569 3.43755 -0.314926
lowerback -14.0458 2.79421 7.29215
upperback 2.6002 2.65918 -2.19151
thorax 11.2595 1.8364 -5.9204
lowerneck -5.75884 15.6705 1.87318
upperneck -1.58386 20.8174 -4.03107
head 1.06168 10.3643 -0.886756
rclavicle 2.95692e-014 -1.73937e-014
rhumerus -33.0784 12.5143 -99.6839
rradius 36.3388
rwrist 14.5698
rhand -12.6145 -20.1157
rfingers 7.12502
rthumb 13.4647 -49.6604
lclavicle 2.95692e-014 -1.73937e-014
lhumerus -33.1641 -15.7567 92.3023
lradius 45.447
lwrist 5.8861
lhand 15.2909 20.5342
lfingers 7.12502
lthumb 40.1254 45.7223
rfemur -20.4514 7.96276 20.6999
rtibia 32.82
rfoot -17.3486 -32.744
rtoes -14.8997
lfemur -26.356 5.2026 -20.5229
ltibia 35.1422
lfoot -26.9532 -11.8514
ltoes 57.9116
217
root -12.5654 17.0533 -34.43 11.5702 3.46047 -0.359161
lowerback -14.0302 2.79295 7.34526
upperback 2.60243 2.64783 -2.18079
thorax 11.2536 1.83395 -5.94202
lowerneck -5.74748 15.7037 1.86121
upperneck -1.54764 20.8639 -4.04847
head 1.07343 10.387 -0.887169
rclavicle 2.3556e-014 -1.02374e-014
rhumerus -33.1462 12.7896 -99.7689
rradius 35.9241
rwrist 16.1245
rhand -14.2336 -19.3352
rfingers 7.12502
rthumb 11.9039 -48.9768
lclavicle 2.3556e-014 -1.02374e-014
lhumerus -33.1107 -15.753 92.3326
lradius 45.2999
lwrist 5.74546
lhand 15.41 20.0412
lfingers 7.12502
lthumb 40.2374 45.1952
rfemur -20.4012 7.91215 20.7817
rtibia 32.8223
rfoot -17.5929 -32.685
rtoes -14.635
lfemur -26.3702 5.15754 -20.4594
ltibia 35.1375
lfoot -26.9063 -11.7971
ltoes 57.8927
218
root -12.5652 17.0534 -34.4286 11.5718 3.44846 -0.281828
lowerback -14.0342 2.78232 7.30564
upperback 2.60687 2.64388 -2.21274
thorax 11.2597 1.8313 -5.9559
lowerneck -5.75038 15.6979 1.91689
upperneck -1.54177 20.8542 -4.1311
head 1.09153 10.3808 -0.916428
rclavicle 1.82633e-014 -2.88238e-015
rhumerus -33.0708 12.6812 -99.6591
rradius 36.4015
rwrist 14.2673
rhand -12.2768 -19.8506
rfingers 7.12502
rthumb 13.7902 -49.3735
lclavicle 1.82633e-014 -2.88238e-015
lhumerus -33.0534 -15.7554 92.3561
lradius 45.1495
lwrist 5.63924
lhand 15.4573 19.751
lfingers 7.12502
lthumb 40.282 44.8914
rfemur -20.4774 7.85517 20.6717
rtibia 32.8537
rfoot -17.1272 -32.6757
rtoes -15.294
lfemur -26.3568 5.22758 -20.5628
ltibia 35.1129
lfoot -26.8203 -11.8471
ltoes 57.9276
219
root -12.5649 17.0536 -34.4285 11.5658 3.46757 -0.277226
lowerback -14.0467 2.77626 7.33267
upperback 2.621 2.63054 -2.22022
thorax 11.283 1.82845 -5.98282
lowerneck -5.74599 15.7039 1.93463
upperneck -1.55581 20.8618 -4.18342
head 1.0947 10.3841 -0.933722
rclavicle -3.40419e-014 6.06293e-015
rhumerus -33.0433 12.7555 -99.6521
rradius 36.4004
rwrist 14.0153
rhand -12.0978 -19.7813
rfingers 7.12502
rthumb 13.9627 -49.2925
lclavicle -3.40419e-014 6.06293e-015
lhumerus -32.9885 -15.7405 92.3833
lradius 45.0344
lwrist 5.53839
lhand 15.4399 20.1198
lfingers 7.12502
lthumb 40.2656 45.2652
rfemur -20.3991 7.75437 20.695
rtibia 32.8465
rfoot -17.4412 -32.5787
rtoes -14.9703
lfemur -26.3454 5.20151 -20.5645
ltibia 35.1148
lfoot -26.7674 -11.8796
ltoes 57.9563
220
root -12.565 17.0539 -34.4262 11.5567 3.46498 -0.235365
lowerback -14.0774 2.77105 7.32263
upperback 2.63998 2.6249 -2.23942
thorax 11.3223 1.82807 -5.99929
lowerneck -5.7631 15.7109 1.93357
upperneck -1.52771 20.872 -4.20162
head 1.1089 10.3884 -0.935224
rclavicle -9.81499e-015 -2.20651e-014
rhumerus -33.0873 12.7558 -99.6427
rradius 36.4794
rwrist 13.9356
rhand -12.0112 -19.7283
rfingers 7.12502
rthumb 14.0462 -49.2336
lclavicle -9.81499e-015 -2.20651e-014
lhumerus -32.9369 -15.7332 92.3949
lradius 44.9524
lwrist 5.46989
lhand 15.8198 20.9511
lfingers 7.12502
lthumb 40.6228 45.9862
rfemur -20.4538 7.71913 20.6345
rtibia 32.866
rfoot -16.9506 -32.605
rtoes -15.8194
lfemur -26.3088 5.18091 -20.6041
ltibia 35.0981
lfoot -26.7183 -11.8826
ltoes 57.9903
221
root -12.5668 17.0533 -34.4288 11.5667 3.48132 -0.278588
lowerback -14.0657 2.76713 7.37352
upperback 2.64098 2.61035 -2.23119
thorax 11.3167 1.82405 -6.02317
lowerneck -5.79045 15.7222 1.91154
upperneck -1.48611 20.8893 -4.19567
head 1.12412 10.3963 -0.925663
rclavicle -4.02042e-014 2.38542e-015
rhumerus -33.0879 12.7694 -99.6423
rradius 36.5363
rwrist 13.7093
rhand -11.841 -19.8088
rfingers 7.12502
rthumb 14.2102 -49.3027
lclavicle -4.02042e-014 2.38542e-015
lhumerus -32.8723 -15.7496 92.4083
lradius 44.8509
lwrist 5.44581
lhand 15.8552 20.8438
lfingers 7.12502
lthumb 40.656 45.8686
rfemur -20.3897 8.10704 20.6818
rtibia 32.861
rfoot -17.4031 -32.9074
rtoes -14.7829
lfemur -26.3511 5.26576 -20.5606
ltibia 35.0998
lfoot -26.573 -11.934
ltoes 58.055
222
root -12.5665 17.0532 -34.4248 11.516 3.49836 -0.248735
lowerback -14.0723 2.75321 7.38052
upperback 2.67161 2.59103 -2.24598
thorax 11.3534 1.81848 -6.04834
lowerneck -5.81126 15.7383 1.89002
upperneck -1.45197 20.9128 -4.19866
head 1.13716 10.4073 -0.919285
rclavicle 5.98839e-015 2.08724e-014
rhumerus -33.0906 12.8257 -99.6656
rradius 36.4982
rwrist 13.6174
rhand -11.8518 -19.8078
rfingers 7.12502
rthumb 14.1998 -49.3025
lclavicle 5.98839e-015 2.08724e-014
lhumerus -32.8322 -15.7561 92.4212
lradius 44.7695
lwrist 5.37481
lhand 15.8958 20.6122
lfingers 7.12502
lthumb 40.6942 45.625
rfemur -20.3803 8.18949 20.6354
rtibia 32.8764
rfoot -16.9001 -33.0257
rtoes -15.4775
lfemur -26.2664 5.23481 -20.5817
ltibia 35.0873
lfoot -26.5108 -11.9615
ltoes 58.1159
223
root -12.5665 17.0535 -34.4258 11.5442 3.50319 -0.227397
lowerback -14.1023 2.74908 7.39013
upperback 2.67332 2.58311 -2.26058
thorax 11.3731 1.81683 -6.07168
lowerneck -5.81969 15.7327 1.91484
upperneck -1.44013 20.9049 -4.24765
head 1.1508 10.4024 -0.93476
rclavicle -2.04003e-014 1.03368e-014
rhumerus -33.1346 12.8042 -99.6707
rradius 36.58
rwrist 13.5508
rhand -11.7843 -19.955
rfingers 7.12502
rthumb 14.2648 -49.4451
lclavicle -2.04003e-014 1.03368e-014
lhumerus -32.7907 -15.76 92.4294
lradius 44.7543
lwrist 5.35849
lhand 15.997 20.503
lfingers 7.12502
lthumb 40.7893 45.4859
rfemur -20.4232 7.99462 20.6135
rtibia 32.8695
rfoot -16.6887 -32.8672
rtoes -16.0647
lfemur -26.3099 5.26261 -20.6162
ltibia 35.0877
lfoot -26.4795 -11.9959
ltoes 58.0997
224
root -12.5666 17.0542 -34.4228 11.524 3.52184 -0.234202
lowerback -14.1494 2.74624 7.42381
upperback 2.69379 2.56954 -2.26287
thorax 11.4241 1.81536 -6.09613
lowerneck -5.89909 15.7573 1.84063
upperneck -1.31845 20.9433 -4.16047
head 1.18545 10.4201 -0.886997
rclavicle -3.56322e-014 5.36719e-015
rhumerus -33.2133 12.6906 -99.6591
rradius 36.657
rwrist 13.7159
rhand -11.8531 -19.9843
rfingers 7.12502
rthumb 14.1986 -49.479
lclavicle -3.56322e-014 5.36719e-015
lhumerus -32.747 -15.7598 92.4362
lradius 44.6291
lwrist 5.24926
lhand 15.9721 20.1138
lfingers 7.12502
lthumb 40.7659 45.1042
rfemur -20.3553 7.76703 20.6749
rtibia 32.8815
rfoot -16.8346 -32.7191
rtoes -16.0406
lfemur -26.2636 5.24194 -20.5986
ltibia 35.0769
lfoot -26.4091 -11.9956
ltoes 58.1339
225
root -12.566 17.0533 -34.4238 11.562 3.53528 -0.211728
lowerback -14.182 2.74444 7.45455
upperback 2.68287 2.56126 -2.28106
thorax 11.4324 1.81432 -6.13579
lowerneck -5.84796 15.7727 1.83287
upperneck -1.37498 20.9642 -4.20354
head 1.1637 10.4316 -0.904288
rclavicle -3.17559e-014 -1.39149e-014
rhumerus -33.1836 12.761 -99.6927
rradius 36.5489
rwrist 13.603
rhand -11.8816 -20.0616
rfingers 7.12502
rthumb 14.1711 -49.5583
lclavicle -3.17559e-014 -1.39149e-014
lhumerus -32.7283 -15.8254 92.4535
lradius 44.6145
lwrist 5.30591
lhand 16.006 19.742
lfingers 7.12502
lthumb 40.7977 44.7224
rfemur -20.3609 7.85403 20.6257
rtibia 32.8702
rfoot -16.9616 -32.7729
rtoes -15.7977
lfemur -26.3109 5.1855 -20.6224
ltibia 35.0822
lfoot -26.3763 -11.9722
ltoes 58.1582
226
root -12.5668 17.0534 -34.4215 11.5122 3.55684 -0.20862
lowerback -14.1874 2.73677 7.47652
upperback 2.71725 2.54635 -2.28461
thorax 11.4738 1.81169 -6.15595
lowerneck -5.91056 15.7577 1.87486
upperneck -1.29536 20.9441 -4.249
head 1.20932 10.4187 -0.913221
rclavicle 1.01877e-015 -2.18663e-015
rhumerus -33.1172 12.8509 -99.7335
rradius 36.4212
rwrist 13.5269
rhand -11.8903 -20.1673
rfingers 7.12502
rthumb 14.1627 -49.6645
lclavicle 1.01877e-015 -2.18663e-015
lhumerus -32.6461 -15.8385 92.4645
lradius 44.4751
lwrist 5.25582
lhand 16.1225 19.4256
lfingers 7.12502
lthumb 40.9072 44.3714
rfemur -20.3223 8.18883 20.6093
rtibia 32.8612
rfoot -16.6863 -33.1058
rtoes -15.867
lfemur -26.2584 5.27991 -20.6302
ltibia 35.088
lfoot -26.2662 -12.0698
ltoes 58.2012
227
root -12.5676 17.0527 -34.4221 11.5333 3.58037 -0.241702
lowerback -14.218 2.73369 7.53628
upperback 2.71543 2.5287 -2.28232
thorax 11.4902 1.80785 -6.19175
lowerneck -5.92291 15.7627 1.90188
upperneck -1.26639 20.9508 -4.30149
head 1.23026 10.4206 -0.928048
rclavicle -9.34288e-015 -4.57205e-015
rhumerus -32.9128 13.172 -99.8402
rradius 36.0684
rwrist 13.1175
rhand -11.9556 -20.0488
rfingers 7.12502
rthumb 14.0998 -49.5504
lclavicle -9.34288e-015 -4.57205e-015
lhumerus -32.6149 -15.9241 92.4857
lradius 44.408
lwrist 5.33388
lhand 16.2435 19.5503
lfingers 7.12502
lthumb 41.0208 44.46
rfemur -20.2929 8.16906 20.659
rtibia 32.8454
rfoot -16.6731 -33.0701
rtoes -16.0218
lfemur -26.2957 5.23773 -20.5853
ltibia 35.1016
lfoot -26.2145 -12.0456
ltoes 58.2179
228
root -12.568 17.0525 -34.4215 11.5353 3.59658 -0.244589
lowerback -14.2302 2.72969 7.56424
upperback 2.72092 2.51765 -2.28669
thorax 11.5036 1.80546 -6.21534
lowerneck -6.01577 15.7802 1.87246
upperneck -1.16467 20.9772 -4.26533
head 1.27155 10.4316 -0.900064
rclavicle 1.9953e-014 -1.13307e-014
rhumerus -32.9316 13.3743 -99.9335
rradius 36.0195
rwrist 12.9739
rhand -12.1533 -20.2054
rfingers 7.12502
rthumb 13.9093 -49.7202
lclavicle 1.9953e-014 -1.13307e-014
lhumerus -32.5854 -16.0105 92.5164
lradius 44.3687
lwrist 5.44785
lhand 16.4154 19.8511
lfingers 7.12502
lthumb 41.1822 44.7093
rfemur -20.2983 8.08173 20.6704
rtibia 32.8445
rfoot -16.3613 -33.0757
rtoes -16.3567
lfemur -26.3001 5.2674 -20.5854
ltibia 35.1064
lfoot -26.1195 -12.1039
ltoes 58.3138
229
root -12.569 17.0527 -34.4204 11.5217 3.62125 -0.261968
lowerback -14.2314 2.71858 7.60731
upperback 2.73562 2.49465 -2.2883
thorax 11.5197 1.79875 -6.24769
lowerneck -6.12422 15.8242 1.87066
upperneck -0.991957 21.0398 -4.25717
head 1.34599 10.4588 -0.876317
rclavicle -1.3418e-014 -1.0138e-014
rhumerus -32.9004 13.4405 -99.9796
rradius 35.9389
rwrist 12.9493
rhand -12.2052 -20.0928
rfingers 7.12502
rthumb 13.8592 -49.611
lclavicle -1.3418e-014 -1.0138e-014
lhumerus -32.5657 -16.075 92.532
lradius 44.2682
lwrist 5.51429
lhand 16.4345 19.7138
lfingers 7.12502
lthumb 41.2002 44.5662
rfemur -20.2851 7.76704 20.7237
rtibia 32.8288
rfoot -16.3543 -32.8151
rtoes -16.5589
lfemur -26.2929 5.25045 -20.5532
ltibia 35.1194
lfoot -26.0676 -12.1304
ltoes 58.3504
